<?xml version="1.0" encoding="utf-8"?>
<!-- Generator: Adobe Illustrator 26.0.2, SVG Export Plug-In . SVG Version: 6.00 Build 0)  -->
<svg version="1.1" id="Calque_1" focusable="false" xmlns="http://www.w3.org/2000/svg" xmlns:xlink="http://www.w3.org/1999/xlink"
	 x="0px" y="0px" viewBox="0 0 128 128" style="enable-background:new 0 0 128 128;" xml:space="preserve">
<style type="text/css">
	.st0{fill:#FFFFFF;}
</style>
<path class="st0" d="M104,128H24c-13.3,0-24-10.7-24-24V24C0,10.7,10.7,0,24,0h80c13.3,0,24,10.7,24,24v80
	C128,117.3,117.3,128,104,128z"/>
<path d="M42,89.3h-7.8L16.4,38.7h7.3l14.5,43.9h0.2l14.7-43.9H60L42,89.3z"/>
<path d="M93.6,89.3h-7.8L68,38.7h7.3l14.5,43.9h0.2l14.7-43.9h6.9L93.6,89.3z"/>
</svg>
